<svg xmlns="http://www.w3.org/2000/svg" viewBox="0 0 278 68.93"><defs><style>.cls-1{fill:#e5e5e5;}.cls-2{fill:#fca311;}</style></defs><g id="Layer_2" data-name="Layer 2"><g id="Layer_1-2" data-name="Layer 1"><path class="cls-1" d="M66.76,50.71V16.35h6.85l8.13,24.33c.75,2.26,1.3,4,1.64,5.08.39-1.25,1-3.08,1.83-5.51l8.23-23.9h6.11V50.71H95.17V22l-10,28.76h-4.1L71.15,21.46V50.71Z"/><path class="cls-1" d="M142,50.73l-9.47-24.9h4.45l5.35,14.91q.87,2.41,1.59,5c.38-1.32.9-2.89,1.57-4.74L151,25.83h4.34l-9.42,24.9Z"/><path class="cls-1" d="M159.07,21.2V16.35h4.22V21.2Zm0,29.51V25.82h4.22V50.71Z"/><path class="cls-1" d="M186.75,42.13l4.36.54a10.68,10.68,0,0,1-3.82,5.93,11.54,11.54,0,0,1-7.13,2.11,11.37,11.37,0,0,1-8.66-3.37q-3.19-3.36-3.2-9.43,0-6.28,3.24-9.75a10.94,10.94,0,0,1,8.39-3.47,10.63,10.63,0,0,1,8.16,3.4q3.15,3.39,3.16,9.56c0,.25,0,.63,0,1.13H172.66A9.61,9.61,0,0,0,175,45.06a6.93,6.93,0,0,0,5.21,2.18,6.5,6.5,0,0,0,4-1.22A8.1,8.1,0,0,0,186.75,42.13ZM172.9,35.31h13.9a8.37,8.37,0,0,0-1.6-4.71A6.44,6.44,0,0,0,180,28.16a6.73,6.73,0,0,0-4.89,1.94A7.72,7.72,0,0,0,172.9,35.31Z"/><path class="cls-2" d="M197.09,51.14V16.78h4.54V30.89h17.86V16.78H224V51.14h-4.55V35H201.63V51.14Z"/><path class="cls-2" d="M247.38,51.14V47.49a9.12,9.12,0,0,1-7.9,4.22,9.92,9.92,0,0,1-4.11-.85,6.82,6.82,0,0,1-2.84-2.12,8,8,0,0,1-1.3-3.13,21.73,21.73,0,0,1-.25-3.93V26.25h4.21V40.06a24.65,24.65,0,0,0,.26,4.45,4.4,4.4,0,0,0,1.69,2.61,5.18,5.18,0,0,0,3.19,1,6.93,6.93,0,0,0,3.56-1,5.46,5.46,0,0,0,2.36-2.65,13.29,13.29,0,0,0,.69-4.86V26.25h4.22V51.14Z"/><path class="cls-2" d="M256.22,52.14V23.9H267a13.67,13.67,0,0,1,5.3.86,6.7,6.7,0,0,1,3.13,2.64,6.81,6.81,0,0,1,1.13,3.73,6.32,6.32,0,0,1-1,3.41,7.21,7.21,0,0,1-3,2.58,7.53,7.53,0,0,1,4,2.56A6.81,6.81,0,0,1,278,44a8.13,8.13,0,0,1-.85,3.69A7.25,7.25,0,0,1,275,50.28a8.93,8.93,0,0,1-3.16,1.39,19.31,19.31,0,0,1-4.65.47ZM260,35.77h6.24a14.09,14.09,0,0,0,3.64-.33,4,4,0,0,0,2.2-1.41,4,4,0,0,0,.74-2.46,4.49,4.49,0,0,0-.69-2.48,3.49,3.49,0,0,0-2-1.46,16.88,16.88,0,0,0-4.39-.4H260Zm0,13h7.19a16.88,16.88,0,0,0,2.59-.13,6.45,6.45,0,0,0,2.21-.77,4.19,4.19,0,0,0,1.46-1.57,4.84,4.84,0,0,0,.57-2.38,4.64,4.64,0,0,0-.83-2.75,4.39,4.39,0,0,0-2.29-1.64,14.72,14.72,0,0,0-4.22-.47H260Z"/><path class="cls-1" d="M118.42,25.21a13.07,13.07,0,1,0,13.07,13.07A13.07,13.07,0,0,0,118.42,25.21Zm-4.83,22.21a4.11,4.11,0,1,1,4.11-4.11A4.11,4.11,0,0,1,113.59,47.42Zm0-10.07a4.11,4.11,0,1,1,4.11-4.11A4.11,4.11,0,0,1,113.59,37.35Zm9.66,10.07a4.11,4.11,0,1,1,4.11-4.11A4.11,4.11,0,0,1,123.25,47.42Zm0-10a4.11,4.11,0,1,1,4.11-4.11A4.11,4.11,0,0,1,123.25,37.39Z"/><path class="cls-2" d="M31,48a2.85,2.85,0,0,1-1.35-.34A3.06,3.06,0,0,1,28,44.93V42.65a1.43,1.43,0,0,1,2.85,0v2.27a.24.24,0,0,0,.12.24L46.48,34.67a.28.28,0,0,0,.1-.22.29.29,0,0,0-.1-.23L30.93,23.82s-.13.05-.13.23v2.77a1.43,1.43,0,0,1-2.85,0V24.05a3,3,0,0,1,1.59-2.73,2.82,2.82,0,0,1,2.95.14l15.56,10.4a3.14,3.14,0,0,1,0,5.17L32.57,47.5A2.85,2.85,0,0,1,31,48Z"/><path class="cls-1" d="M38.58,64.61a4.73,4.73,0,0,1-6.71.17L4.32,38.58a4.74,4.74,0,0,1-.17-6.71L30.34,4.31a4.79,4.79,0,0,1,3.44-1.47,4.72,4.72,0,0,1,3.28,1.31L55.81,22a1.45,1.45,0,0,0,1,.39h0a1.42,1.42,0,0,0,1-2.45L39,2.08a7.58,7.58,0,0,0-10.72.28L2.08,29.91a7.6,7.6,0,0,0,.28,10.73l27.55,26.2a7.54,7.54,0,0,0,5.23,2.09h.19a7.54,7.54,0,0,0,5.31-2.36L57.38,49a1.42,1.42,0,0,0-1-2.4h0a1.43,1.43,0,0,0-1,.44Z"/></g></g></svg>